<?xml version="1.0" standalone="no"?>
<!DOCTYPE svg PUBLIC "-//W3C//DTD SVG 20010904//EN"
 "http://www.w3.org/TR/2001/REC-SVG-20010904/DTD/svg10.dtd">
<svg version="1.0" xmlns="http://www.w3.org/2000/svg"
 width="188.000000pt" height="188.000000pt" viewBox="0 0 188.000000 188.000000"
 preserveAspectRatio="xMidYMid meet">

<g transform="translate(0.000000,188.000000) scale(0.100000,-0.100000)"
fill="#000000" stroke="none">
<path d="M815 1873 c-379 -60 -669 -312 -782 -679 -25 -82 -27 -102 -27 -249
1 -184 16 -257 83 -401 121 -258 340 -440 621 -515 117 -32 337 -32 452 -1
172 47 297 115 416 226 246 230 348 557 278 886 -73 341 -344 622 -686 710
-84 22 -283 35 -355 23z m293 -687 c2 -105 -1 -141 -10 -148 -7 -4 -43 -8 -80
-8 -56 0 -68 -3 -68 -16 0 -9 9 -18 20 -21 43 -11 12 -28 -50 -28 -62 0 -93
17 -50 28 11 3 20 12 20 21 0 13 -12 16 -64 16 -101 0 -96 -8 -96 149 0 76 3
141 7 145 4 3 88 5 187 4 l181 -3 3 -139z m-448 -221 c0 -13 -36 -15 -260 -15
-224 0 -260 2 -260 15 0 13 36 15 260 15 224 0 260 -2 260 -15z m1038 3 c-4
-10 -67 -14 -261 -16 -224 -2 -257 0 -257 13 0 13 34 15 261 15 204 0 260 -3
257 -12z m-1250 -130 c2 -11 -3 -18 -11 -18 -23 0 -28 -27 -6 -33 24 -6 25
-25 1 -35 -10 -4 -18 -16 -18 -27 -2 -48 -5 -55 -24 -55 -16 0 -20 7 -20 38 0
21 -5 43 -12 50 -9 9 -9 15 0 24 7 7 12 19 12 27 0 42 71 68 78 29z m382 -28
c0 -54 8 -62 28 -30 7 11 21 20 33 20 20 0 20 -1 3 -29 -16 -28 -16 -30 5 -65
l23 -36 -26 0 c-18 0 -30 8 -38 25 -12 27 -28 24 -28 -6 0 -12 -7 -19 -20 -19
-19 0 -20 7 -20 95 0 88 1 95 20 95 17 0 20 -7 20 -50z m660 -7 c0 -32 3 -74
6 -94 l6 -36 -58 -1 c-69 -1 -94 16 -94 63 0 49 20 69 64 62 36 -6 36 -5 36
29 0 27 4 34 20 34 18 0 20 -7 20 -57z m-1321 -17 c10 -11 8 -16 -8 -21 -12
-3 -25 -4 -30 -1 -18 11 -41 -6 -41 -30 0 -22 10 -29 34 -25 6 1 21 0 34 -4
37 -9 9 -35 -39 -35 -69 0 -104 65 -59 110 24 24 91 27 109 6z m155 -8 c36
-51 4 -108 -59 -108 -42 0 -75 29 -75 65 0 60 100 92 134 43z m260 6 c9 -8 16
-26 16 -40 0 -22 -4 -24 -45 -24 -26 0 -45 -5 -45 -11 0 -7 12 -9 33 -5 38 7
52 -1 36 -21 -19 -22 -85 -16 -103 9 -36 51 -7 108 54 108 22 0 45 -7 54 -16z
m153 8 c15 -9 34 -58 26 -66 -4 -3 -26 -6 -50 -6 -25 0 -43 -5 -43 -11 0 -7
12 -9 33 -5 38 7 52 -1 36 -21 -19 -22 -85 -16 -103 9 -36 51 -8 108 53 108
20 0 41 -4 48 -8z m423 -7 c13 -16 11 -18 -39 -19 -32 -1 -49 -29 -31 -51 7
-9 20 -13 28 -10 8 3 23 3 34 -1 15 -4 17 -9 7 -20 -16 -19 -78 -18 -101 3
-22 20 -23 70 -1 95 20 22 85 24 103 3z m152 -2 c22 -20 23 -70 1 -95 -20 -23
-80 -24 -105 -1 -22 20 -24 76 -2 97 20 21 83 20 106 -1z m338 -3 c11 -11 20
-29 20 -40 0 -17 -7 -20 -51 -20 -34 0 -48 -4 -43 -11 4 -6 20 -8 39 -5 38 8
55 -8 26 -23 -59 -32 -128 5 -117 63 3 17 14 37 23 44 26 19 80 15 103 -8z
m133 14 c3 -3 3 -12 0 -19 -3 -10 -11 -11 -29 -5 -39 15 -29 -8 11 -24 36 -16
46 -41 23 -64 -17 -17 -83 -15 -97 2 -16 19 1 29 34 20 15 -4 25 -2 25 5 0 6
-6 11 -14 11 -8 0 -24 8 -36 18 -19 16 -21 22 -11 40 9 17 21 22 50 22 21 0
40 -3 44 -6z m-773 -54 c0 -16 -7 -20 -35 -20 -28 0 -35 4 -35 20 0 16 7 20
35 20 28 0 35 -4 35 -20z"/>
<path d="M754 1297 c-2 -7 -3 -65 -2 -128 l3 -114 165 0 165 0 0 125 0 125
-163 3 c-128 2 -164 0 -168 -11z m180 -118 c-28 -76 -39 -97 -49 -87 -3 3 9
44 26 92 19 53 35 84 41 78 5 -5 -2 -38 -18 -83z m-84 42 c0 -5 -7 -14 -15
-21 -19 -16 -19 -29 2 -52 25 -28 6 -35 -22 -8 -31 29 -31 37 -3 67 22 24 38
30 38 14z m177 -13 c29 -27 29 -39 -2 -68 -28 -27 -47 -20 -22 8 21 23 21 36
2 52 -16 13 -20 30 -8 30 4 0 17 -10 30 -22z"/>
<path d="M1400 751 c-12 -23 12 -54 35 -45 18 7 20 35 3 52 -17 17 -26 15 -38
-7z"/>
<path d="M247 764 c-12 -12 -8 -52 6 -57 22 -8 39 8 35 34 -3 23 -27 37 -41
23z"/>
<path d="M510 760 c0 -5 12 -10 26 -10 14 0 23 4 19 10 -3 6 -15 10 -26 10
-10 0 -19 -4 -19 -10z"/>
<path d="M670 760 c0 -5 12 -10 26 -10 14 0 23 4 19 10 -3 6 -15 10 -26 10
-10 0 -19 -4 -19 -10z"/>
<path d="M1239 754 c-13 -16 -4 -44 19 -52 18 -6 36 37 21 54 -15 18 -23 18
-40 -2z"/>
<path d="M1570 760 c0 -5 12 -10 26 -10 14 0 23 4 19 10 -3 6 -15 10 -26 10
-10 0 -19 -4 -19 -10z"/>
</g>
</svg>
