<?xml version="1.0" standalone="no"?>
<!DOCTYPE svg PUBLIC "-//W3C//DTD SVG 20010904//EN"
 "http://www.w3.org/TR/2001/REC-SVG-20010904/DTD/svg10.dtd">
<svg version="1.0" xmlns="http://www.w3.org/2000/svg"
 width="225.000000pt" height="225.000000pt" viewBox="0 0 225.000000 225.000000"
 preserveAspectRatio="xMidYMid meet">

<g transform="translate(0.000000,225.000000) scale(0.100000,-0.100000)"
fill="#000000" stroke="none">
<path d="M595 2239 c-277 -17 -430 -92 -510 -249 -67 -132 -85 -315 -85 -865
0 -550 18 -733 85 -865 83 -163 229 -231 540 -250 206 -13 794 -13 1000 0 455
28 587 160 615 615 13 206 13 794 0 1000 -28 455 -160 587 -615 615 -186 11
-841 11 -1030 -1z m50 -718 c9 -11 36 -66 59 -123 77 -193 192 -363 240 -356
20 3 21 8 21 178 l0 176 -34 52 c-32 51 -33 53 -16 72 16 18 32 20 165 20 125
0 150 -3 161 -17 10 -12 15 -67 19 -212 5 -181 6 -196 24 -199 42 -8 145 125
235 305 28 56 60 107 70 113 25 13 216 13 242 0 11 -6 19 -21 19 -35 0 -34
-75 -176 -164 -310 -42 -62 -76 -121 -76 -129 0 -9 39 -58 88 -108 167 -178
209 -250 166 -292 -12 -13 -39 -16 -132 -16 l-116 0 -108 110 c-113 114 -182
164 -220 158 -22 -3 -23 -7 -26 -114 -3 -136 -10 -146 -106 -152 -170 -11
-370 99 -505 278 -118 157 -230 372 -266 511 -15 55 -15 63 0 85 15 23 20 24
129 24 99 0 115 -2 131 -19z"/>
</g>
</svg>
